<svg width="128" height="39" viewBox="0 0 128 39" fill="none" xmlns="http://www.w3.org/2000/svg">
<g clip-path="url(#clip0_2803_49629)">
<path d="M55.5958 17.953V16.2922C55.5958 15.8506 55.0941 15.5999 54.7406 15.8648L52.2747 17.7052V30.6529H55.5958V21.8872C55.9265 20.836 56.3513 20.0725 56.8701 19.5911C57.3861 19.1125 57.9848 18.8732 58.669 18.8732C59.1308 18.8732 59.6097 18.9643 60.1086 19.1495L60.6902 16.164C60.1913 15.8876 59.6012 15.748 58.9198 15.748C57.4289 15.748 56.3256 16.4887 55.5987 17.953H55.5958Z" fill="#0B3471"/>
<path d="M8.85452 22.8129C8.22735 22.528 7.41488 22.2374 6.41996 21.9412C5.42503 21.6278 4.70093 21.3458 4.24766 21.0979C3.79439 20.8501 3.56918 20.4769 3.56918 19.9783C3.56918 19.5168 3.78013 19.1408 4.2049 18.8445C4.62967 18.5511 5.19982 18.403 5.92107 18.403C6.54824 18.403 7.20677 18.4998 7.89951 18.6935C8.59225 18.8873 9.19661 19.1408 9.7126 19.4542L10.736 17.1324C10.126 16.7079 9.39332 16.3718 8.53523 16.1239C7.67715 15.8761 6.77915 15.7507 5.83555 15.7507C4.17639 15.7507 2.84793 16.1439 1.85016 16.9273C0.855234 17.7107 0.356347 18.7762 0.356347 20.1208C0.356347 21.0068 0.573007 21.7247 1.00633 22.2773C1.43964 22.83 1.96134 23.2488 2.5714 23.5365C3.18147 23.8214 3.96543 24.1119 4.9233 24.4082C5.91822 24.7216 6.64802 25.0179 7.10984 25.2942C7.57167 25.5705 7.80258 25.958 7.80258 26.4565C7.80258 26.955 7.55456 27.3966 7.05568 27.7299C6.55679 28.0604 5.87546 28.2285 5.00882 28.2285C4.27047 28.2285 3.54067 28.1173 2.82227 27.8951C2.10387 27.6729 1.45675 27.351 0.886592 26.9266L0 29.499C0.627171 29.9776 1.39688 30.3622 2.31198 30.6471C3.22423 30.932 4.19635 31.0744 5.23118 31.0744C7.00151 31.0744 8.43261 30.6556 9.5216 29.8152C10.6106 28.9777 11.1551 27.8182 11.1551 26.3454C11.1551 25.4053 10.9299 24.6532 10.4766 24.092C10.0233 23.5308 9.48454 23.1063 8.85737 22.8186L8.85452 22.8129Z" fill="#0B3471"/>
<path d="M16.9365 15.8564L14.4706 17.6967V30.653H17.7917V16.2866C17.7917 15.845 17.29 15.5943 16.9365 15.8593V15.8564Z" fill="#0B3471"/>
<path d="M65.5907 15.8621L63.1248 17.7024V30.653H66.4459V16.2894C66.4459 15.8478 65.9442 15.5971 65.5907 15.8621Z" fill="#0B3471"/>
<path d="M29.9676 22.813C29.3404 22.5281 28.5279 22.2376 27.533 21.9413C26.5381 21.6279 25.8111 21.3459 25.3607 21.098C24.9074 20.8502 24.6822 20.477 24.6822 19.9785C24.6822 19.517 24.8932 19.1409 25.3179 18.8446C25.7427 18.5512 26.3129 18.4031 27.0341 18.4031C27.6613 18.4031 28.3198 18.4999 29.0125 18.6937C29.7053 18.8874 30.3097 19.1409 30.8256 19.4543L31.8491 17.1325C31.239 16.708 30.5064 16.3719 29.6483 16.124C28.7902 15.8762 27.8922 15.7509 26.9486 15.7509C25.2894 15.7509 23.961 16.144 22.9632 16.9274C21.9654 17.7108 21.4694 18.7763 21.4694 20.1209C21.4694 21.0069 21.686 21.7248 22.1194 22.2774C22.5527 22.8301 23.0744 23.2489 23.6844 23.5366C24.2945 23.8215 25.0785 24.1121 26.0363 24.4083C27.0341 24.7217 27.7611 25.018 28.2229 25.2943C28.6847 25.5707 28.9156 25.9581 28.9156 26.4566C28.9156 26.9552 28.6676 27.3967 28.1687 27.73C27.6698 28.0605 26.9885 28.2286 26.1219 28.2286C25.3835 28.2286 24.6537 28.1175 23.9353 27.8953C23.2169 27.6731 22.5698 27.3511 21.9996 26.9267L21.113 29.4991C21.7402 29.9777 22.5099 30.3623 23.425 30.6472C24.3373 30.9321 25.3094 31.0745 26.3442 31.0745C28.1146 31.0745 29.5456 30.6557 30.6346 29.8154C31.7236 28.9778 32.2681 27.8183 32.2681 26.3455C32.2681 25.4054 32.0429 24.6533 31.5897 24.0921C31.1364 23.5309 30.5976 23.1064 29.9704 22.8187L29.9676 22.813Z" fill="#0B3471"/>
<path d="M107.845 22.5225C107.845 21.306 107.606 20.1808 107.127 19.1495C106.648 18.1182 105.924 17.2921 104.954 16.6739C103.985 16.0557 102.799 15.748 101.399 15.748C99.9997 15.748 98.7938 16.0671 97.7334 16.7024C96.6729 17.3377 95.8518 18.2379 95.2703 19.3974C94.6887 20.5597 94.3979 21.9128 94.3979 23.4626C94.3979 25.1206 94.7144 26.5222 95.353 27.6674C95.9887 28.8098 96.8525 29.6644 97.9415 30.2256C99.0305 30.7868 100.256 31.0689 101.622 31.0689C104.039 31.0689 106.066 30.4136 107.711 29.106L106.383 26.9495C105.145 27.9266 103.709 28.4138 102.067 28.4138C99.5208 28.4138 98.0812 27.0862 97.7505 24.4312H107.685C107.797 23.9697 107.851 23.3344 107.851 22.5225H107.845ZM97.7163 22.192C97.8445 20.9015 98.2379 19.9301 98.8936 19.2749C99.5493 18.6196 100.41 18.292 101.482 18.292C102.554 18.292 103.312 18.6339 103.877 19.3147C104.438 19.9984 104.738 20.9556 104.775 22.192H97.7191H97.7163Z" fill="#0B3471"/>
<path d="M45.9718 16.577C45.0681 16.0244 44.0732 15.748 42.987 15.748C42.0463 15.748 35.5807 16.1611 35.5807 16.1611V34.6498H38.8961V29.8439C39.7998 30.3766 40.8945 30.6558 42.1831 30.6558C43.4716 30.6558 44.5492 30.3196 45.5812 29.6673C46.6132 29.0149 47.4314 28.0805 48.0414 26.864C48.6487 25.6505 48.9537 24.2318 48.9537 22.6108C48.9537 20.9898 48.68 20.1466 48.1384 19.0498C47.5939 17.9559 46.8726 17.1297 45.9689 16.5799L45.9718 16.577ZM45.0196 25.5764C44.6604 26.3399 44.1758 26.921 43.5686 27.317C42.9614 27.713 42.2971 27.9124 41.5787 27.9124C41.0086 27.9124 40.5182 27.844 40.1134 27.7044C39.7086 27.5648 39.3038 27.3398 38.899 27.0264V18.6766H42.2145C43.1894 18.6766 43.9933 19.064 44.6177 19.8361C45.2448 20.6081 45.5584 21.3573 45.5584 22.8843C45.5584 23.9155 45.3788 24.8129 45.0196 25.5764Z" fill="#0B3471"/>
<path d="M83.5508 18.7679C83.8644 18.6938 84.1979 18.634 84.5229 18.6112C84.1894 18.6311 83.8644 18.6824 83.5508 18.7679Z" fill="#0B3471"/>
<path d="M90.8317 19.8474C90.6692 18.9956 90.3727 18.2578 89.9451 17.6567C89.5203 17.0584 88.9273 16.5855 88.1804 16.2522C87.4278 15.9161 86.4586 15.748 85.2926 15.748C85.2926 15.748 82.7982 15.7195 80.3493 16.9758C79.9616 16.6453 79.5027 16.369 78.9724 16.1525C78.3167 15.8847 77.4643 15.748 76.4324 15.748C75.3206 15.748 70.3859 16.181 70.3859 16.181V30.6557H73.707V18.6765C73.707 18.6765 75.751 18.5996 76.1416 18.5996C77.2648 18.5996 78.0431 18.9785 78.4593 19.7249C78.8641 20.4513 79.0693 21.3003 79.0693 22.9155V30.6586H82.3905V22.8443C82.3905 22.2233 82.362 21.6336 82.3021 21.0923C82.2451 20.5539 82.1396 20.0383 81.9857 19.5568L81.9059 19.3261C81.9059 19.3261 82.6499 18.9871 83.5479 18.7705C83.8615 18.6851 84.1865 18.6338 84.52 18.6139C84.6227 18.6053 84.7253 18.6025 84.8251 18.6025C85.9682 18.6025 86.7522 18.9814 87.1599 19.7277C87.5561 20.4542 87.7557 21.6421 87.7557 23.2546V30.6586H91.0768V22.6962C91.0768 21.6706 90.9942 20.7163 90.8317 19.8531V19.8474Z" fill="#0B3471"/>
<path d="M116.66 0.837528L116.523 3.77464L127.997 6.13344L117.988 0.125329C117.418 -0.216526 116.691 0.173759 116.66 0.837528Z" fill="#0047BB"/>
<path d="M115.616 23.5082C115.573 24.417 116.773 24.7788 117.244 24.0011L128 6.13342L116.004 15.11L115.616 23.5082Z" fill="#0047BB"/>
<path d="M105.829 1.57815C105.117 1.43001 104.544 2.16785 104.866 2.82307L111.808 16.9531C112.05 17.4459 112.68 17.5969 113.119 17.2693L116.004 15.1128L116.526 3.77741L105.829 1.57815Z" fill="#0047BB"/>
</g>
<defs>
<clipPath id="clip0_2803_49629">
<rect width="128" height="39" fill="white"/>
</clipPath>
</defs>
</svg>
